<svg width="158" height="65" viewBox="0 0 158 65" fill="none" xmlns="http://www.w3.org/2000/svg">
<g clip-path="url(#clip0)">
<path d="M2.80031 43.0915C2.80031 43.0915 -5.84646 44.349 7.22195 52.5707C20.2904 60.7924 34.194 61.808 34.194 61.808C34.194 61.808 50.8979 60.3571 51.9297 60.4055C54.9757 60.599 69.4197 53.3929 73.1044 48.1696C73.1044 48.1696 79.4421 40.5283 79.5895 31.7746C79.5895 31.7746 81.0142 17.5074 67.995 12.7195C67.995 12.7195 56.0074 5.46503 45.7885 13.9286C45.7885 13.9286 36.5522 19.974 37.3382 36.0305C37.3382 36.0305 37.24 45.9449 41.1703 50.9747C45.1007 56.0045 51.8805 62.34 62.3451 63.4524L73.5466 64.7098L73.3501 59.7284C73.3501 59.7284 64.3103 59.2932 62.5907 59.003C61.0186 58.7128 48.4906 51.5067 48.0976 50.9747C48.0976 50.9747 44.6094 47.4442 43.4794 44.3973C43.4794 44.3973 40.5317 37.6265 41.416 32.4516C41.416 32.4516 41.5634 23.8914 45.6411 20.3609C45.6411 20.3609 50.7014 14.4122 57.6778 14.9442C57.6778 14.9442 65.2928 14.0737 70.6971 20.4576C76.0522 26.8415 74.1361 33.032 74.1361 33.032C74.1361 33.032 72.0236 43.3333 67.1598 45.8482C65.7841 46.5737 67.2089 48.6049 56.597 53.2961L49.3258 55.1823L36.1591 56.1979C36.1591 56.1979 23.6312 55.1339 19.0621 52.8609C19.0621 52.8609 9.58016 48.6533 9.18712 47.6376C9.18712 47.7344 4.91287 43.0432 2.80031 43.0915Z" fill="#231F20"/>
<path d="M70.9918 63.6942C70.9918 63.6942 68.3389 60.2121 73.3501 59.8735C75.3644 59.7284 90.8892 62.872 107.79 46.7671C107.79 46.7671 118.696 39.1741 118.353 27.0833C118.353 27.0833 118.942 7.06101 102.779 8.17336C102.779 8.17336 92.6579 8.85045 89.1697 20.1674C89.1697 20.1674 86.2711 33.3222 103.958 41.3504C103.958 41.3504 114.52 45.0744 126.066 37.8199C126.066 37.8199 132.993 31.968 136.236 27.9539C137.316 26.5997 142.18 19.442 142.18 19.442C142.18 19.442 147.29 8.41518 148.371 7.68973C149.402 6.96429 139.429 11.1719 139.429 11.1719C139.429 11.1719 136.334 12.6711 135.106 10.5432C135.106 10.5432 134.172 7.78646 136.53 7.01265C138.889 6.23884 155.298 0 155.298 0C155.298 0 158.54 0.483631 157.902 4.73958L157.803 21.5699C157.803 21.5699 154.856 25.1972 152.841 21.4249L153.677 9.14062L152.89 9.91444L141.247 29.4048C141.247 29.4048 131.421 41.689 123.413 44.3006C122.479 44.5908 115.798 47.7827 110.492 47.4442C110.492 47.4442 102.238 47.5409 94.3774 40.9152C86.5167 34.2894 84.6989 22.6339 84.6989 22.6339C84.6989 22.6339 83.5198 15.2827 89.6119 9.38244C91.184 7.88318 101.894 1.88616 107.053 3.77232C107.053 3.77232 115.012 4.78795 120.662 14.1704C120.662 14.1704 124.936 25.1972 123.364 29.9368C121.792 34.6763 120.662 39.1257 118.795 42.753C116.928 46.4286 107.053 54.1667 107.053 54.1667C107.053 54.1667 95.9004 60.7924 89.7593 62.7753C89.268 62.9204 79.4421 65.1935 76.9856 64.8549C75.9539 64.6615 73.7431 65.8705 70.9918 63.6942Z" fill="#231F20"/>
</g>
<defs>
<clipPath id="clip0">
<rect width="158" height="65" fill="white"/>
</clipPath>
</defs>
</svg>
